<?xml version="1.0" encoding="UTF-8"?>
<svg id="Ebene_2" data-name="Ebene 2" xmlns="http://www.w3.org/2000/svg" viewBox="0 0 566.93 155.01">
  <defs>
    <style>
      .cls-1 {
        fill-rule: evenodd;
      }

      .cls-1, .cls-2 {
        fill: #1d1d1b;
      }
    </style>
  </defs>
  <g id="Ebene_1-2" data-name="Ebene 1">
    <rect class="cls-2" x="119.53" y="105.59" width="417.67" height="2.49"/>
    <path class="cls-1" d="M119.52,125.34v29.25h6.77c4.37,0,8.71-.04,12.42-2.82,3.51-2.61,4.54-6.46,4.83-7.87.21-.79.41-2.24.41-4.27,0-2.77-.45-4.6-.87-5.67-.33-.95-1.24-3.06-3.3-4.97-1.94-1.74-4.58-3.28-10.03-3.57-.91-.04-1.82-.08-2.72-.08h-7.51ZM125.46,129.83c2.97-.04,6.27.08,8.75,1.99,1.49,1.12,3.59,3.6,3.63,8.12,0,2.98-.99,4.97-1.61,5.96-2.35,3.73-6.31,4.02-7.68,4.1-1.03.08-2.06.08-3.05.08l-.04-20.25Z"/>
    <polygon class="cls-1" points="204.05 125.3 204.05 154.6 221.46 154.6 221.46 149.66 210.03 149.66 210.03 142.03 220.39 142.03 220.39 137.21 210.03 137.21 210.03 130.24 221.34 130.24 221.34 125.3 204.05 125.3"/>
    <path class="cls-1" d="M297.74,125.8c-2.68-.66-4.21-1-6.97-1-1.07,0-4.91-.08-7.72,2.49-2.39,2.2-2.52,5.02-2.52,6.14,0,3.32,1.57,5.48,4.37,7.01,1.4.75,2.89,1.33,4.37,1.91,2.19.91,3.14,1.37,3.71,2.45.16.29.45.83.45,1.62,0,.29-.04,1-.45,1.7-1.24,2.2-4.13,2.16-4.66,2.16-1.49,0-3.71-.41-5.08-1-.54-.21-1.03-.5-1.57-.79l-.49,5.31c2.89.79,4.58,1.16,7.63,1.16,1.53,0,3.14-.12,4.62-.58,3.76-1.2,6.15-4.36,6.15-8.34,0-4.86-3.34-6.76-4.87-7.55-1.24-.66-2.56-1.12-3.84-1.62-1.61-.62-2.56-1.04-3.18-1.54-1.03-.83-1.16-1.91-1.16-2.41,0-.79.25-1.37.41-1.62,1.11-2.03,4.33-1.95,4.58-1.95,1.98-.04,3.8.54,4.42.75.41.17.82.37,1.24.54l.54-4.85Z"/>
    <rect class="cls-2" x="359.66" y="125.3" width="5.9" height="29.3"/>
    <path class="cls-1" d="M450.31,126.05c-1.73-.54-4.04-1.24-8.09-1.24-1.77,0-7.84.04-12.21,4.27-4.04,3.9-4.21,9.09-4.21,10.87,0,5.77,2.19,9.21,3.84,10.91,1.4,1.45,3.01,2.24,3.67,2.57,3.43,1.58,6.73,1.58,7.96,1.58,3.59,0,6.56-.62,7.8-.95.7-.21,1.4-.46,2.1-.71l.04-15.48h-11.55v4.61h6.11v7.22c-.66.17-2.02.58-3.88.58-4.04,0-7.59-2.03-9.08-5.98-.54-1.41-.74-2.99-.74-4.48,0-6.89,4.29-9.21,6.97-9.88.58-.17,1.69-.37,3.26-.37,3.88,0,6.02,1,7.59,1.7l.41-5.23Z"/>
    <path class="cls-1" d="M520.63,125.3h-7.06v29.3h5.49l-.12-16.27c-.04-.87-.04-1.74-.08-2.57-.08-1.37-.21-2.74-.37-4.11.45,1.12.95,2.24,1.49,3.36.45,1.04.99,2.03,1.53,3.03l9.04,16.56h6.93v-29.3h-5.45l.16,16.02c0,.83,0,1.7.04,2.53.08,1.49.21,2.99.37,4.52-.33-.79-.66-1.62-1.03-2.41-.91-1.99-1.98-3.98-2.97-5.93l-7.96-14.73Z"/>
    <path class="cls-1" d="M164.88,28.92v-14.94h-29.71c-15.01,0-14.86,14.94-14.86,14.94v59.75h14.86V28.92h29.71Z"/>
    <path class="cls-1" d="M242.27,88.67V28.92s0-14.94-14.85-14.94h-29.71s-14.86,0-14.86,14.94h44.57v14.94h-29.71c-14.86,0-14.86,14.94-14.86,14.94v14.94s-.15,14.94,14.86,14.94h44.57ZM227.41,73.73h-29.71v-14.94h29.71v14.94Z"/>
    <path class="cls-1" d="M327.15,73.73V28.92c0-14.94-14.85-14.94-14.85-14.94h-29.71V0h-14.86v88.67h44.57c14.85,0,14.85-14.94,14.85-14.94ZM312.29,73.73h-29.71V28.92h29.71v44.81Z"/>
    <path class="cls-1" d="M412.03,88.67V28.92s.15-14.94-14.85-14.94h-44.57v74.69h14.86V28.92h29.71v59.75h14.85Z"/>
    <path class="cls-1" d="M496.9,73.73h-44.57v-14.94h44.57v-29.88s.15-14.94-14.85-14.94h-29.71s-14.86,0-14.86,14.94v44.81s0,14.94,14.86,14.94h29.71s14.85,0,14.85-14.94ZM482.05,43.85h-29.71v-14.94h29.71v14.94Z"/>
    <path class="cls-1" d="M566.93,28.92v-14.94h-29.71c-15.01,0-14.86,14.94-14.86,14.94v59.75h14.86V28.92h29.71Z"/>
    <path class="cls-1" d="M108.85,13.98c0,18.68-17.41,19.85-19.6,19.92v41.12c0,19.13-19.82,19.93-19.82,19.93h-19.82v9.97h10.35c20.02,0,19.82,19.93,19.82,19.93v9.97c0,19.93-19.82,19.93-19.82,19.93h-30.17c-19.82,0-19.82-19.93-19.82-19.93v-9.97c0-19.93,19.82-19.93,19.82-19.93h1.03v-9.97h-10.99S0,94.96,0,75.03v-41.12C0,13.98,19.82,13.98,19.82,13.98h89.03ZM69.43,75.03v-41.12H19.82v41.12h49.61ZM59.96,136.49v-13.06h-30.17v13.06h30.17Z"/>
  </g>
</svg>