<?xml version="1.0" encoding="UTF-8"?>
<svg id="Ebene_2" data-name="Ebene 2" xmlns="http://www.w3.org/2000/svg" viewBox="0 0 566.93 155.3">
  <defs>
    <style>
      .cls-1 {
        fill-rule: evenodd;
      }

      .cls-1, .cls-2 {
        fill: #1d1d1b;
      }
    </style>
  </defs>
  <g id="Ebene_1-2" data-name="Ebene 1">
    <rect class="cls-2" x="119.53" y="105.59" width="417.67" height="2.49"/>
    <path class="cls-1" d="M164.88,28.92v-14.94h-29.71c-15.01,0-14.86,14.94-14.86,14.94v59.75h14.86V28.92h29.71Z"/>
    <path class="cls-1" d="M242.27,88.67V28.92s0-14.94-14.85-14.94h-29.71s-14.86,0-14.86,14.94h44.57v14.94h-29.71c-14.86,0-14.86,14.94-14.86,14.94v14.94s-.15,14.94,14.86,14.94h44.57ZM227.41,73.73h-29.71v-14.94h29.71v14.94Z"/>
    <path class="cls-1" d="M327.15,73.73V28.92c0-14.94-14.85-14.94-14.85-14.94h-29.71V0h-14.86v88.67h44.57c14.85,0,14.85-14.94,14.85-14.94ZM312.29,73.73h-29.71V28.92h29.71v44.81Z"/>
    <path class="cls-1" d="M412.03,88.67V28.92s.15-14.94-14.85-14.94h-44.57v74.69h14.86V28.92h29.71v59.75h14.85Z"/>
    <path class="cls-1" d="M496.9,73.73h-44.57v-14.94h44.57v-29.88s.15-14.94-14.85-14.94h-29.71s-14.86,0-14.86,14.94v44.81s0,14.94,14.86,14.94h29.71s14.85,0,14.85-14.94ZM482.05,43.85h-29.71v-14.94h29.71v14.94Z"/>
    <path class="cls-1" d="M566.93,28.92v-14.94h-29.71c-15.01,0-14.86,14.94-14.86,14.94v59.75h14.86V28.92h29.71Z"/>
    <path class="cls-1" d="M108.85,13.98c0,18.68-17.41,19.85-19.6,19.92v41.12c0,19.13-19.82,19.93-19.82,19.93h-19.82v9.97h10.35c20.02,0,19.82,19.93,19.82,19.93v9.97c0,19.93-19.82,19.93-19.82,19.93h-30.17c-19.82,0-19.82-19.93-19.82-19.93v-9.97c0-19.93,19.82-19.93,19.82-19.93h1.03v-9.97h-10.99S0,94.96,0,75.03v-41.12C0,13.98,19.82,13.98,19.82,13.98h89.03ZM69.43,75.03v-41.12H19.82v41.12h49.61ZM59.96,136.49v-13.06h-30.17v13.06h30.17Z"/>
    <g>
      <path d="M130.65,155.3c-2.7,0-5.04-.44-7.04-1.32-1.99-.88-3.6-2.08-4.83-3.6l4-4.41c1.17,1.29,2.45,2.24,3.84,2.85s2.81.92,4.26.92c1.66,0,2.91-.37,3.77-1.11s1.29-1.81,1.29-3.2c0-1.14-.33-2.01-.99-2.6s-1.77-1.01-3.33-1.25l-3.36-.55c-2.88-.49-4.97-1.55-6.26-3.19-1.29-1.64-1.93-3.64-1.93-6,0-3.09,1.01-5.49,3.04-7.19,2.02-1.7,4.86-2.55,8.51-2.55,2.48,0,4.65.38,6.49,1.14,1.84.76,3.33,1.79,4.46,3.1l-3.91,4.36c-.86-.95-1.87-1.69-3.04-2.23-1.17-.54-2.48-.8-3.96-.8-3.1,0-4.65,1.28-4.65,3.85,0,1.11.34,1.95,1.04,2.51.69.56,1.82.97,3.38,1.25l3.36.6c2.61.46,4.62,1.44,6.03,2.94,1.41,1.5,2.12,3.52,2.12,6.06,0,1.5-.26,2.89-.78,4.16-.52,1.27-1.3,2.37-2.35,3.31-1.04.93-2.32,1.66-3.84,2.18-1.52.52-3.29.78-5.31.78Z"/>
      <path d="M188.57,155.3c-4.29,0-7.48-1.45-9.54-4.35-2.07-2.9-3.11-6.98-3.11-12.26s1.04-9.36,3.11-12.26c2.07-2.9,5.25-4.35,9.54-4.35,1.66,0,3.12.22,4.39.67,1.27.45,2.37,1.07,3.29,1.86.92.8,1.68,1.76,2.28,2.9.6,1.14,1.07,2.41,1.4,3.82l-6.44,1.56c-.18-.77-.4-1.47-.64-2.12-.25-.64-.56-1.2-.94-1.66-.38-.46-.86-.82-1.43-1.08-.57-.26-1.25-.39-2.05-.39-1.87,0-3.2.73-3.98,2.18-.78,1.46-1.17,3.47-1.17,6.05v5.61c0,2.58.39,4.59,1.17,6.05.78,1.46,2.11,2.19,3.98,2.19,1.59,0,2.75-.49,3.47-1.47.72-.98,1.25-2.24,1.59-3.77l6.44,1.56c-.34,1.41-.81,2.68-1.4,3.82-.6,1.13-1.36,2.11-2.28,2.92s-2.02,1.43-3.29,1.86c-1.27.43-2.74.64-4.39.64Z"/>
      <path d="M248.46,141.32h-8.1v13.43h-6.95v-32.11h6.95v13.02h8.1v-13.02h6.95v32.11h-6.95v-13.43Z"/>
      <path d="M291.19,154.75v-32.11h6.95v26.45h13.8v5.66h-20.75Z"/>
      <path d="M352.28,122.64v20.33c0,1.01.04,1.94.12,2.78.08.84.26,1.56.55,2.14.29.58.73,1.03,1.31,1.36.58.32,1.38.48,2.39.48s1.81-.16,2.39-.48c.58-.32,1.02-.77,1.31-1.36.29-.58.48-1.3.55-2.14.08-.84.12-1.77.12-2.78v-20.33h6.9v19.41c0,2.21-.15,4.14-.44,5.8-.29,1.66-.85,3.04-1.68,4.14-.83,1.1-1.98,1.93-3.45,2.48-1.47.55-3.37.83-5.7.83s-4.23-.28-5.7-.83c-1.47-.55-2.62-1.38-3.45-2.48-.83-1.1-1.39-2.48-1.68-4.14-.29-1.66-.44-3.59-.44-5.8v-19.41h6.9Z"/>
      <path d="M417.04,128.3v26.45h-6.9v-26.45h-9.25v-5.66h25.39v5.66h-9.25Z"/>
      <path d="M474.76,128.3v26.45h-6.9v-26.45h-9.25v-5.66h25.39v5.66h-9.25Z"/>
      <path d="M517.55,154.75v-32.11h20.52v5.66h-13.62v7.36h13.16v5.66h-13.16v7.77h13.62v5.66h-20.52Z"/>
    </g>
  </g>
</svg>